<svg xmlns="http://www.w3.org/2000/svg" enable-background="new 0 0 80 80" viewBox="0 0 80 80"><path d="M75,32.5478516c0-3.9155273-3.1855469-7.1010742-7.1005859-7.1010742H50.0620117
	c1.3114014-4.2849121,2.8677979-12.4549561-2.1889648-17.4345703c-1.5263672-1.5019531-3.4677734-2.3525391-5.46875-2.394043
	c-2.0166016-0.0478516-3.7734375,0.675293-5.0820312,2.0742188c-0.7148438,0.7646484-1.1083984,1.7724609-1.1083984,2.8374023
	v0.7114258c0,7.3105469-3.3310547,14.0795898-8.9091797,18.1064453c-1.6794434,1.2121582-3.4853516,2.1450195-5.3818359,2.8120117
	c-0.0970459-1.7720947-1.5566406-3.1879883-3.3525391-3.1879883H8.3710938C6.5126953,28.9716797,5,30.4838867,5,32.3422852
	v38.6704102c0,1.8583984,1.5126953,3.3706055,3.3710938,3.3706055h10.1992188c1.8583984,0,3.3710938-1.512207,3.3710938-3.3706055
	v-1.3730469c5.9448242,1.0046387,12.0776367,1.5092773,18.3681641,1.5092773c7.0332031,0,14.2626953-0.628418,21.6367188-1.8842773
	c3.7167969-0.0976562,6.7099609-3.1513672,6.7099609-6.8911133c0-1.1550293-0.2890625-2.2427979-0.793335-3.2000732
	c2.8775635-0.8797607,4.9769287-3.559082,4.9769287-6.7208252c0-1.4788818-0.4614258-2.8505859-1.2446289-3.9841309
	C73.6286621,47.2698975,75,45.0629883,75,42.5366211c0-1.9412842-0.8104248-3.6940918-2.1069336-4.9473877
	C74.192749,36.3015137,75,34.5175781,75,32.5478516z M17.9414062,70.3833008H9V32.9716797h8.9414062V70.3833008z
	 M68.1123047,39.6489258C69.7041016,39.6489258,71,40.9443359,71,42.5366211s-1.2958984,2.8876953-2.8876953,2.8876953H65.8125
	h-9.5351562c-1.1044922,0-2,0.8955078-2,2s0.8955078,2,2,2H65.8125c1.6689453,0,3.0273438,1.3583984,3.0273438,3.0283203
	c0,1.6694336-1.3583984,3.027832-3.0273438,3.027832h-4.0498047h-2.8974609c-1.1044922,0-2,0.8955078-2,2s0.8955078,2,2,2h2.8974609
	c1.5957031,0,2.8935547,1.2978516,2.8935547,2.8930664c0,1.5957031-1.2978516,2.8935547-2.8935547,2.8935547
	c-0.1132812,0-0.2265625,0.0097656-0.3378906,0.0288086c-13.8265381,2.3710938-27.1008301,2.4599609-39.4833984,0.2802734
	v-29.215332c2.7416992-0.7944336,5.3286133-2.0556641,7.7041016-3.7695312
	c6.6171875-4.7768555,10.5683594-12.7583008,10.5683594-21.3500977v-0.7114258c0-0.0556641,0.0205078-0.0952148,0.0292969-0.1049805
	c0.5253906-0.5615234,1.2128906-0.8300781,2.078125-0.8076172c0.9755859,0.0205078,1.9501953,0.4628906,2.7451172,1.2456055
	c4.9177246,4.842041,0.4886475,15.3974609,0.3293457,15.769043c-0.0993652,0.2216797-0.1555176,0.4650879-0.1674805,0.7209473
	c-0.0012207,0.0253906-0.0075684,0.0509033-0.0078125,0.0762939c0,0.0059814-0.001709,0.0115967-0.001709,0.0177002
	c0,0.0684814,0.0134277,0.1333008,0.0201416,0.1999512c0.0059814,0.0593262,0.0067139,0.1193848,0.0179443,0.1777344
	c0.0134277,0.0698242,0.0369873,0.1352539,0.057373,0.2022705c0.0175781,0.0579834,0.0310059,0.1168213,0.0537109,0.1727295
	c0.0224609,0.0551758,0.0527344,0.1054688,0.079834,0.1582031c0.032959,0.0644531,0.0635986,0.1296387,0.1033936,0.1903076
	c0.0230713,0.03479,0.0513916,0.0653076,0.0765381,0.0985107c0.0535889,0.0716553,0.1071777,0.1425781,0.1706543,0.2067871
	c0.0178223,0.0180664,0.0389404,0.0325928,0.0574951,0.0500488c0.0759277,0.0714111,0.1544189,0.1402588,0.2424316,0.1999512
	c0.0093994,0.0063477,0.0203857,0.0106201,0.0299072,0.0168457c0.0915527,0.0598145,0.1853027,0.1176758,0.2888184,0.1630859
	c0.2763672,0.121582,0.5644531,0.1699219,0.8474121,0.1635742h20.6350098C69.609375,29.4467773,71,30.8378906,71,32.5478516
	s-1.390625,3.1010742-3.1005859,3.1010742H54.9833984c-1.1044922,0-2,0.8955078-2,2s0.8955078,2,2,2h12.9160156H68.1123047z"/></svg>