<?xml version="1.0" encoding="utf-8"?>
<!-- Generator: Adobe Illustrator 23.0.0, SVG Export Plug-In . SVG Version: 6.00 Build 0)  -->
<svg version="1.1" xmlns="http://www.w3.org/2000/svg" xmlns:xlink="http://www.w3.org/1999/xlink" x="0px" y="0px"
	 viewBox="0 0 1920 1080" style="enable-background:new 0 0 1920 1080;" xml:space="preserve">
<style type="text/css">
	.st0{opacity:8.000000e-02;fill:#FFBE55;}
	.st1{fill:#FCD2B1;}
	.st2{fill:#2A94F4;}
	.st3{fill:#0B4870;}
	.st4{fill:#0E538C;}
	.st5{fill:#FFE3CA;}
	.st6{opacity:0.2;}
	.st7{fill:#FFBE55;}
	.st8{fill:#B97A59;}
</style>
<g id="Background">
	<ellipse class="st0" cx="906.5" cy="1046.6" rx="337.2" ry="33.4"/>
	<path class="st0" d="M671,1021.7c-1.7-1.6-249.3-347.5-43.9-456c279.5-147.8-92.7-647,423.3-554.3
		c496.8,89.2-102.4,483.3,101.1,627.3c133.5,94.4,211,321.2-68.2,394C906.2,1078.7,714.1,1062,671,1021.7z"/>
</g>
<g id="Character">
	<g>
		<path class="st1" d="M1051.1,621.9l7.1-9.9c1.9-3.7,10.6-3.1,13.4-0.1c1.9,2.1,0.3,7.7-0.6,9.6c-2.2,4.7-13.3,22.9-13.3,22.9
			s-5.4,2.4-10.1-3.3C1044.3,637.3,1049.6,624,1051.1,621.9z"/>
		<path class="st2" d="M1069.5,757.9c0,0-3.4-23.8-11.6-47.8c-8.2-24-0.2-67.3-0.2-67.3s-11.5-6.7-13.3-3.1
			c-1.8,3.6-15,62.2-15,62.2s-0.5,35.5,7.3,46.6C1041.4,755.1,1061.1,764.7,1069.5,757.9z"/>
	</g>
	<g>
		<path class="st1" d="M1033.6,1030.6c0,0-1.5,7.9-1.4,14.2c0.9,4.4,0,5.7,0,5.7l-18-1.4c0,0,8-3.6,7.4-20.7
			C1021,1011.2,1033.6,1030.6,1033.6,1030.6z"/>
		<path class="st3" d="M1032.4,1046.1c0,0-7.8,2.7-15.6,0.7c-9.1,3.9-15.5,5.4-23.8,6.4c-8.3,1-6.8,7.2,7.3,6.4
			c14.1-0.9,24-0.3,27.2,0c3.1,0.3,8.2,0.7,8.4-1.4C1036.2,1056.2,1035,1045.4,1032.4,1046.1z"/>
		<path class="st4" d="M1027,809.9c0,0-11.6,104.2-12.3,117.8c-0.7,13.6-0.7,18.3,0,26.6c0.7,8.3,6.8,77.9,6.8,77.9l11.8,0.7
			c0,0,8.8-75.9,12.3-88.9c3.4-13,16.9-78.8,16.9-78.8l-15.5-67.3L1027,809.9z"/>
		<path class="st1" d="M1083.2,1032c0,0-0.6,5.8,0,12.1c1.2,4.3,0.5,5.7,0.5,5.7l-18.1,0.1c0,0,7.6-4.2,5.7-21.3
			C1069.3,1011.5,1083.2,1032,1083.2,1032z"/>
		<path class="st3" d="M1082.7,1046.1c0,0-7.8,2.7-15.6,0.7c-9.1,3.9-15.5,5.4-23.8,6.4c-8.3,1-6.8,7.2,7.3,6.4
			c14.1-0.9,24-0.3,27.2,0c3.1,0.3,8.2,0.7,8.4-1.4C1086.4,1056.2,1085.3,1045.4,1082.7,1046.1z"/>
		<path class="st4" d="M1050.3,809.9c0,0,9.8,104.6,9.1,118.2c-0.7,13.6,11.9,104.2,11.9,104.2l11.9,0.2c0,0,3.1-79.6,3.1-93
			c0-12.8,4.2-116.6,4.2-116.6l-17.5-25L1050.3,809.9z"/>
	</g>
	<g>
		<path class="st2" d="M1043.5,737.4c0,0,53.2,3.7,56.6,15.7c3.4,12-1.1,101.3-1.1,101.3s-52.3,14.6-77.5-9.7
			C1023.3,836.1,1031,750.9,1043.5,737.4z"/>
		<path class="st1" d="M1062.6,728l-5,18.8c0,0,1.7,8.5,11.1,7.7c9.4-0.8,10.4-6.3,10.4-6.3l-3.7-21.3
			C1075.5,726.9,1066.4,725.3,1062.6,728z"/>
		<path class="st5" d="M1056.7,698.6c0,0-11.8,17.8-9.6,24c2.2,6.2,10.4,11.3,28.6,11.5c6.1-1.5,11.1-20.6,10.5-24.5
			C1082.6,684.5,1062.9,693.7,1056.7,698.6z"/>
		<path class="st3" d="M1053.5,700.3c6.4,6,9.8,4.9,18.2,4.6c5.1-0.2,7.2,3.9,5.9,6.5c-1.3,2.6-6.9,8-2.8,8.4
			c4.2,0.4,3.9-6.2,6.8-3.4c2.9,2.9-3.4,10.5-0.3,12.1c3.1,1.6,13.8-1.7,11.2-8.9c-2.5-7.2,20-26.8-17-37.8c-9.5-2.8-12.9-1.8-16-2
			C1052.3,679.3,1052.6,699.5,1053.5,700.3z"/>
	</g>
</g>
<g id="Object">
	<g>
		<g class="st6">
			<path class="st7" d="M837.2,724.7c0-65.4,7.4-116.9,22.2-154.8c14.8-37.8,38.7-70.6,71.9-98.4c33.1-27.8,58.3-53.2,75.5-76.2
				c17.2-23.1,25.9-48.5,25.9-76.2c0-67.6-29.1-101.4-87.3-101.4c-26.9,0-48.6,9.9-65.1,29.5c-16.6,19.7-25.3,46.3-26.2,79.9H627
				c0.9-89.5,29.1-159.2,84.6-209.2c55.5-49.9,119.5-78.2,219.8-78.2c99.8,0,191,26.4,245.9,72.5c54.8,46.1,82.3,111.7,82.3,196.7
				c0,37.2-7.4,71-22.2,101.4c-14.8,30.4-38.5,61.6-71.2,93.3l-77.2,71.9c-21.9,21-37.2,42.6-45.7,64.8
				c-8.5,22.2-13.2,50.3-14.1,84.3H837.2z M809.7,928.9c0-33.1,30.9-87,54.9-108.3c0,0,31.4-8.5,67.3-8.5c35.8,0,69.1,13.9,93,35.2
				c23.9,21.3,35.9,48.5,35.9,81.6c0,33.1-12,60.3-35.9,81.6c-24,21.3-53.8,31.9-89.6,31.9c-35.8,0-65.7-10.6-89.6-31.9
				C821.7,989.2,809.7,962,809.7,928.9z"/>
		</g>
		<g>
			<g>
				<path class="st7" d="M807.1,724.7c0-65.4,7.4-116.9,22.2-154.8c14.8-37.8,38.7-70.6,71.9-98.4c33.1-27.8,58.3-53.2,75.5-76.2
					c17.2-23.1,25.9-48.5,25.9-76.2c0-67.6-29.1-101.4-87.3-101.4c-26.9,0-48.6,9.9-65.1,29.5c-16.6,19.7-25.3,46.3-26.2,79.9h-227
					C597.8,237.7,626,168,681.5,118C737,68.1,814.9,43.2,915.2,43.2c99.8,0,177.2,23.1,232,69.2c54.8,46.1,82.3,111.7,82.3,196.7
					c0,37.2-7.4,71-22.2,101.4c-14.8,30.4-38.5,61.6-71.2,93.3l-77.2,71.9c-21.9,21-37.2,42.6-45.7,64.8
					c-8.5,22.2-13.2,50.3-14.1,84.3H807.1z M779.5,928.9c0-33.1,12-60.3,35.9-81.6c23.9-21.3,53.8-31.9,89.6-31.9
					c35.8,0,65.7,10.6,89.6,31.9c23.9,21.3,35.9,48.5,35.9,81.6c0,33.1-12,60.3-35.9,81.6c-24,21.3-53.8,31.9-89.6,31.9
					c-35.8,0-65.7-10.6-89.6-31.9C791.5,989.2,779.5,962,779.5,928.9z"/>
			</g>
		</g>
	</g>
	<g>
		<path class="st1" d="M1103.1,879.2c0,0-8.8,3-11,19.9c-0.2,1.5,2.6,1.3,2.9-0.2l4.6-9.4c1.1,2.7-0.7,3-1.3,5.7l-2.1,6.9
			c-0.8,2.7,1.6,5.2,4.3,4.5c2.5-0.7,5.2-1.6,6.3-2.8c2.4-2.6,8.3-17.9,6.4-21.7C1111.3,878.4,1107.2,875.7,1103.1,879.2z"/>
		<path class="st2" d="M1084.5,750.9c5.3-6.4,15.5-5.6,20.1,1.4c8,12.1,22.9,36.9,22.8,52.7c0.7,18.3-14.2,77.3-14.2,77.3
			s-6.9,0-10.1-3c0.2-4.8,2.3-61.1,2.3-61.1s-20.5-30.3-25-44.3C1077.6,765.1,1079.9,756.5,1084.5,750.9z"/>
	</g>
	<g>
		<g>
			<g>
				<path class="st3" d="M685.9,677.2c0,0-0.5-17,5.5-24.1c7.8-9.3,27.5-10.2,36.2-3.9c9.7,7,16.4,23.5,11.5,36.8
					c14.8,5.8,31,13.1,24.8,52.5c-12.6,79.4-112.4,45.3-89.6-24.9C679.4,698.2,685.9,677.2,685.9,677.2z"/>
				<path class="st8" d="M740.2,1011.2c0,0,1.4,7.4,1.3,13.2c-0.8,4.1,0,5.3,0,5.3l16.7-1.3c0,0-7.4-3.3-6.9-19.3
					C751.9,993.2,740.2,1011.2,740.2,1011.2z"/>
				<path class="st3" d="M741.3,1025.7c0,0,7.3,2.5,14.5,0.6c8.5,3.6,14.4,5,22.1,5.9c7.7,0.9,6.3,6.7-6.8,5.9
					c-13.1-0.8-22.3-0.3-25.2,0c-2.9,0.3-7.6,0.6-7.8-1.3C737.9,1035,738.9,1025.1,741.3,1025.7z"/>
				<path class="st3" d="M746.4,806.4c0,0,10.8,96.8,11.4,109.4c0.6,12.6,0.6,17,0,24.7c-0.6,7.7-6.4,72.3-6.4,72.3l-11,0.6
					c0,0-8.2-70.5-11.4-82.5c-3.2-12.1-15.7-73.1-15.7-73.1l14.4-62.5L746.4,806.4z"/>
				<path class="st8" d="M694.2,1012.6c0,0,0.6,5.4,0,11.2c-1.1,4-0.4,5.2-0.4,5.2l16.8,0.1c0,0-7.1-3.9-5.3-19.8
					C707.1,993.5,694.2,1012.6,694.2,1012.6z"/>
				<path class="st3" d="M694.6,1025.7c0,0,7.3,2.5,14.5,0.6c8.5,3.6,14.4,5,22.1,5.9c7.7,0.9,6.3,6.7-6.8,5.9
					c-13.1-0.8-22.3-0.3-25.2,0c-2.9,0.3-7.6,0.6-7.8-1.3C691.2,1035,692.3,1025.1,694.6,1025.7z"/>
				<path class="st3" d="M724.7,806.4c0,0-9.1,97.1-8.5,109.7c0.6,12.6-11,96.8-11,96.8l-11,0.2c0,0-2.8-73.9-2.8-86.4
					c0-11.8-3.9-108.3-3.9-108.3l16.3-23.2L724.7,806.4z"/>
				<path class="st8" d="M759.1,669L759.1,669c0,0-7.5-6.4-8.8-8.6c-3.7-5.7-9.7-7-13.6-7.2c-2-0.1-3.6,1.5-3.6,3.4
					c0,0.5,0.3,1,0.7,1.3l9.8,4.7c0.5,0.2,0.5,0.3,0.9,0.7l0.4,0.8c0.7,0.9,0.6,1.3-0.6,1.5l-1.3-0.1c-0.6,0.1-5.1-1.6-5.6-1.9
					c-0.8-0.4-1.8,0.3-1.7,1.2c0,0.7,0.4,1.4,1.1,1.7l7.6,4.8l6.2,2.2c13.8,11,25.5,19.1,26.9,22.5c-14.4,10.3-42.5,22.8-42.5,22.8
					l11.6,13.1c0,0,35.3-18.7,43.6-25.5C807.7,689.7,773.3,675.4,759.1,669z"/>
				<path class="st7" d="M736.2,749.9c-1.5,3.5,9.9,52.1,11.8,63.3c0,0-0.2,0-0.7-0.1c-5-0.7-35.4-4.8-59.9,5.5l-2.2-68.6l-0.1-2.5
					c0,0,0-2.6,0.2-6.6v0c0.6-8.2,2.2-21.9,7.5-30.8c2.7-4.6,6.3-7.9,11.2-8.3c15.3-1.5,27.4,5.1,33.2,6.9c9.6,3,15.3,1.2,15.3,1.2
					s7.6,18.9,3.8,22.3l-16,6.7C740.5,738.7,737.7,746.3,736.2,749.9z"/>
				<path class="st8" d="M732.2,658.1c0,0,9.7,22.5,2.4,32.7c-5.5,7.7-15.1,7.9-15.1,7.9v11.1c0,0-1.1,1-3,1.1
					c-3.4,0.2-12.3-5.2-12.3-5.2v-43.6L732.2,658.1z"/>
				<path class="st8" d="M683.5,745.1c0,0,7.7,39.1,11.1,49c1.8,7.9,52.2,10.2,55.4,10.8c6.1,5.4,9.5,5.2,11.5,5.2
					c1.5,0,0.8,0.3,8.8,0.8c3.6,0.2,6-3.5,4.3-6.7v0c-4.2-4.1-3.9-2.6-9.6-3.8c-6.1-1.2-7.6-1.9-6.6-3c6.1-6.8,0.6-8.2-5.5-1.2
					c-0.4,0.4-1.1,0.1-1.7,0.1c-11.7-2.8-39.3-10.6-43.1-10.7c-4.4-16.6-5.6-46.1-5.6-46.1L683.5,745.1z"/>
				<path class="st7" d="M680.5,751.9c0,0-3.3-32.2,6.2-39.9c9.5-7.7,20.3,4.7,19.8,21c-0.5,16.2-0.2,22.1-0.2,22.1
					S691.7,760,680.5,751.9z"/>
				<path class="st3" d="M733.1,655.6c0,0-5,29-17.1,23.8c-11-4.7-5.5-0.2-15.6,9.5c-3,2.9-0.6-30.7-0.6-30.7L733.1,655.6z"/>
			</g>
		</g>
	</g>
</g>
</svg>
